<?xml version="1.0" encoding="UTF-8"?>
<!DOCTYPE svg PUBLIC "-//W3C//DTD SVG 1.1//EN" "http://www.w3.org/Graphics/SVG/1.1/DTD/svg11.dtd">
<svg xmlns="http://www.w3.org/2000/svg" version="1.1" width="512px" height="512px" style="shape-rendering:geometricPrecision; text-rendering:geometricPrecision; image-rendering:optimizeQuality; fill-rule:evenodd; clip-rule:evenodd" xmlns:xlink="http://www.w3.org/1999/xlink">
<g><path style="opacity:1" fill="#cd2e11" d="M 287.5,10.5 C 294.102,13.805 300.436,17.6383 306.5,22C 313.089,29.0947 320.089,35.5947 327.5,41.5C 366.167,80.8333 405.167,119.833 444.5,158.5C 427.953,166.742 420.286,180.242 421.5,199C 420.477,212.929 425.144,224.596 435.5,234C 448.812,240.735 461.479,239.735 473.5,231C 475,228.833 476.5,226.667 478,224.5C 478.499,228.486 478.666,232.486 478.5,236.5C 484.5,236.5 490.5,236.5 496.5,236.5C 496.5,228.833 496.5,221.167 496.5,213.5C 500.021,218.542 503.021,223.875 505.5,229.5C 510.774,246.544 510.774,263.544 505.5,280.5C 502.491,288.182 498.658,295.515 494,302.5C 487.328,310.004 480.495,317.338 473.5,324.5C 464.167,333.5 454.833,342.5 445.5,351.5C 445.711,324.878 432.544,311.212 406,310.5C 380.335,311.831 367.169,325.331 366.5,351C 366.347,376.526 379.014,390.026 404.5,391.5C 379.167,417.167 353.833,442.833 328.5,468.5C 320.671,476.162 312.671,483.662 304.5,491C 297.08,496.408 289.08,500.575 280.5,503.5C 264.5,508.833 248.5,508.833 232.5,503.5C 223.654,500.075 215.321,495.575 207.5,490C 200.298,482.631 192.965,475.464 185.5,468.5C 185.5,467.833 185.167,467.5 184.5,467.5C 154.194,437.527 123.86,407.527 93.5,377.5C 93.5,377.167 93.5,376.833 93.5,376.5C 93.5,368.167 93.5,359.833 93.5,351.5C 100.022,351.823 106.355,351.49 112.5,350.5C 134.454,348.546 145.788,336.546 146.5,314.5C 145.45,296.276 135.783,285.776 117.5,283C 103.171,282.5 88.8372,282.333 74.5,282.5C 74.5,307.5 74.5,332.5 74.5,357.5C 65.1667,348.5 55.8333,339.5 46.5,330.5C 38.2023,321.702 29.7023,313.035 21,304.5C 16.6251,298.403 12.7918,292.07 9.5,285.5C 1.50145,265.511 1.50145,245.511 9.5,225.5C 11.9159,220.999 14.5825,216.666 17.5,212.5C 31.4889,233.481 51.1556,241.981 76.5,238C 85.919,236.938 94.7523,234.105 103,229.5C 103.5,212.503 103.667,195.503 103.5,178.5C 89.5,178.5 75.5,178.5 61.5,178.5C 61.5,183.5 61.5,188.5 61.5,193.5C 69.1667,193.5 76.8333,193.5 84.5,193.5C 84.5,202.167 84.5,210.833 84.5,219.5C 73.218,223.213 61.8847,223.379 50.5,220C 40.4357,214.372 34.4357,205.872 32.5,194.5C 37.5,190.167 42.1667,185.5 46.5,180.5C 58.8333,168.833 70.8333,156.833 82.5,144.5C 88.3105,145.739 93.6439,148.072 98.5,151.5C 100.062,144.58 99.7283,137.913 97.5,131.5C 125.5,103.167 153.5,74.8333 181.5,46.5C 189.632,38.8691 197.632,31.0358 205.5,23C 212.063,18.5581 218.729,14.3914 225.5,10.5C 246.178,2.53072 266.845,2.53072 287.5,10.5 Z"/></g>
<g><path style="opacity:1" fill="#010100" d="M 225.5,10.5 C 218.729,14.3914 212.063,18.5581 205.5,23C 197.632,31.0358 189.632,38.8691 181.5,46.5C 155.498,46.3334 129.498,46.5 103.5,47C 73.0982,52.0691 54.2648,69.5691 47,99.5C 46.5002,110.161 46.3335,120.828 46.5,131.5C 29.0702,138.596 18.0702,151.262 13.5,169.5C 12.0583,174.255 11.3917,179.255 11.5,184.5C 11.502,187.686 11.8353,190.686 12.5,193.5C 13.3993,200.1 15.0659,206.434 17.5,212.5C 14.5825,216.666 11.9159,220.999 9.5,225.5C 9.33334,175.166 9.50001,124.832 10,74.5C 16.377,39.1229 37.2103,17.9562 72.5,11C 123.499,10.5 174.499,10.3333 225.5,10.5 Z"/></g>
<g><path style="opacity:1" fill="#010000" d="M 287.5,10.5 C 339.168,10.3333 390.834,10.5 442.5,11C 476.906,17.7392 497.739,38.2392 505,72.5C 505.5,124.832 505.667,177.166 505.5,229.5C 503.021,223.875 500.021,218.542 496.5,213.5C 496.5,183.5 496.5,153.5 496.5,123.5C 490.5,123.5 484.5,123.5 478.5,123.5C 477.833,137.833 477.167,152.167 476.5,166.5C 474.766,163.8 472.432,161.8 469.5,160.5C 469.935,137.794 469.435,115.128 468,92.5C 459.999,64.167 441.499,47.3337 412.5,42C 384.169,41.5 355.835,41.3334 327.5,41.5C 320.089,35.5947 313.089,29.0947 306.5,22C 300.436,17.6383 294.102,13.805 287.5,10.5 Z"/></g>
<g><path style="opacity:1" fill="#8e0a9a" d="M 327.5,41.5 C 355.835,41.3334 384.169,41.5 412.5,42C 441.499,47.3337 459.999,64.167 468,92.5C 469.435,115.128 469.935,137.794 469.5,160.5C 461.397,157.421 453.063,156.754 444.5,158.5C 405.167,119.833 366.167,80.8333 327.5,41.5 Z"/></g>
<g><path style="opacity:1" fill="#1d950e" d="M 181.5,46.5 C 153.5,74.8333 125.5,103.167 97.5,131.5C 80.4369,126.277 63.4369,126.277 46.5,131.5C 46.3335,120.828 46.5002,110.161 47,99.5C 54.2648,69.5691 73.0982,52.0691 103.5,47C 129.498,46.5 155.498,46.3334 181.5,46.5 Z"/></g>
<g><path style="opacity:1" fill="#e79a8b" d="M 305.5,123.5 C 305.667,138.837 305.5,154.17 305,169.5C 304.283,168.956 303.783,168.289 303.5,167.5C 304.167,152.833 304.833,138.167 305.5,123.5 Z"/></g>
<g><path style="opacity:1" fill="#fef8f7" d="M 305.5,123.5 C 311.5,123.5 317.5,123.5 323.5,123.5C 323.5,161.167 323.5,198.833 323.5,236.5C 317.167,236.5 310.833,236.5 304.5,236.5C 304.665,233.15 304.498,229.817 304,226.5C 292.12,239.414 278.287,241.914 262.5,234C 249.743,222.397 244.91,207.897 248,190.5C 253.642,162.267 270.142,152.433 297.5,161C 299.706,163.037 301.706,165.203 303.5,167.5C 303.783,168.289 304.283,168.956 305,169.5C 305.5,154.17 305.667,138.837 305.5,123.5 Z"/></g>
<g><path style="opacity:1" fill="#5d5d5d" d="M 478.5,123.5 C 478.667,138.837 478.5,154.17 478,169.5C 477.487,168.473 476.987,167.473 476.5,166.5C 477.167,152.167 477.833,137.833 478.5,123.5 Z"/></g>
<g><path style="opacity:1" fill="#fbf9f9" d="M 478.5,123.5 C 484.5,123.5 490.5,123.5 496.5,123.5C 496.5,153.5 496.5,183.5 496.5,213.5C 496.5,221.167 496.5,228.833 496.5,236.5C 490.5,236.5 484.5,236.5 478.5,236.5C 478.666,232.486 478.499,228.486 478,224.5C 476.5,226.667 475,228.833 473.5,231C 461.479,239.735 448.812,240.735 435.5,234C 425.144,224.596 420.477,212.929 421.5,199C 420.286,180.242 427.953,166.742 444.5,158.5C 453.063,156.754 461.397,157.421 469.5,160.5C 472.432,161.8 474.766,163.8 476.5,166.5C 476.987,167.473 477.487,168.473 478,169.5C 478.5,154.17 478.667,138.837 478.5,123.5 Z"/></g>
<g><path style="opacity:1" fill="#fdf8f7" d="M 218.5,123.5 C 229.042,122.539 233.542,127.206 232,137.5C 228.723,143.109 223.89,144.942 217.5,143C 211.975,140.081 210.142,135.581 212,129.5C 213.494,126.686 215.66,124.686 218.5,123.5 Z"/></g>
<g><path style="opacity:1" fill="#fcfaf9" d="M 97.5,131.5 C 99.7283,137.913 100.062,144.58 98.5,151.5C 93.6439,148.072 88.3105,145.739 82.5,144.5C 74.8821,143.4 67.2155,143.233 59.5,144C 54.5469,145.143 50.2136,147.31 46.5,150.5C 36.138,158.561 31.138,169.228 31.5,182.5C 31.668,186.525 32.0013,190.525 32.5,194.5C 34.4357,205.872 40.4357,214.372 50.5,220C 61.8847,223.379 73.218,223.213 84.5,219.5C 84.5,210.833 84.5,202.167 84.5,193.5C 76.8333,193.5 69.1667,193.5 61.5,193.5C 61.5,188.5 61.5,183.5 61.5,178.5C 75.5,178.5 89.5,178.5 103.5,178.5C 103.667,195.503 103.5,212.503 103,229.5C 94.7523,234.105 85.919,236.938 76.5,238C 51.1556,241.981 31.4889,233.481 17.5,212.5C 15.0659,206.434 13.3993,200.1 12.5,193.5C 12.5012,185.483 12.8345,177.483 13.5,169.5C 18.0702,151.262 29.0702,138.596 46.5,131.5C 63.4369,126.277 80.4369,126.277 97.5,131.5 Z"/></g>
<g><path style="opacity:1" fill="#1e9710" d="M 82.5,144.5 C 70.8333,156.833 58.8333,168.833 46.5,180.5C 46.5,170.5 46.5,160.5 46.5,150.5C 50.2136,147.31 54.5469,145.143 59.5,144C 67.2155,143.233 74.8821,143.4 82.5,144.5 Z"/></g>
<g><path style="opacity:1" fill="#040504" d="M 46.5,150.5 C 46.5,160.5 46.5,170.5 46.5,180.5C 42.1667,185.5 37.5,190.167 32.5,194.5C 32.0013,190.525 31.668,186.525 31.5,182.5C 31.138,169.228 36.138,158.561 46.5,150.5 Z"/></g>
<g><path style="opacity:1" fill="#fefaf9" d="M 368.5,157.5 C 388.863,154.416 402.363,162.416 409,181.5C 410.288,188.437 410.788,195.437 410.5,202.5C 393.167,202.5 375.833,202.5 358.5,202.5C 359.684,219.173 368.684,226.673 385.5,225C 392.084,223.874 398.084,221.374 403.5,217.5C 404.833,222.5 404.833,227.5 403.5,232.5C 391.763,238.074 379.43,239.907 366.5,238C 354.497,234.663 346.33,227.163 342,215.5C 335.622,195.358 340.122,178.191 355.5,164C 359.647,161.26 363.98,159.093 368.5,157.5 Z"/></g>
<g><path style="opacity:1" fill="#fef8f7" d="M 121.5,159.5 C 127.833,159.5 134.167,159.5 140.5,159.5C 140.333,176.837 140.5,194.17 141,211.5C 144.629,224.061 152.462,227.561 164.5,222C 167.433,219.736 169.6,216.902 171,213.5C 172.446,195.556 172.946,177.556 172.5,159.5C 178.5,159.5 184.5,159.5 190.5,159.5C 190.5,185.167 190.5,210.833 190.5,236.5C 184.5,236.5 178.5,236.5 172.5,236.5C 172.665,233.482 172.498,230.482 172,227.5C 161.899,238.786 149.732,241.619 135.5,236C 127.824,230.494 123.324,222.994 122,213.5C 121.5,195.503 121.333,177.503 121.5,159.5 Z"/></g>
<g><path style="opacity:1" fill="#fefaf9" d="M 212.5,159.5 C 218.5,159.5 224.5,159.5 230.5,159.5C 230.5,185.167 230.5,210.833 230.5,236.5C 224.5,236.5 218.5,236.5 212.5,236.5C 212.5,210.833 212.5,185.167 212.5,159.5 Z"/></g>
<g><path style="opacity:1" fill="#ce3114" d="M 371.5,170.5 C 385.7,169.701 392.7,176.368 392.5,190.5C 381.167,190.5 369.833,190.5 358.5,190.5C 359.329,181.499 363.662,174.832 371.5,170.5 Z"/></g>
<g><path style="opacity:1" fill="#ce3014" d="M 281.5,171.5 C 292.86,170.424 300.694,175.091 305,185.5C 306.667,196.302 305.333,206.636 301,216.5C 291.931,226.212 282.265,226.879 272,218.5C 265.609,206.517 264.942,194.184 270,181.5C 272.794,176.866 276.627,173.533 281.5,171.5 Z"/></g>
<g><path style="opacity:1" fill="#8d108d" d="M 457.5,171.5 C 461.924,171.272 465.924,172.272 469.5,174.5C 469.5,177.5 469.5,180.5 469.5,183.5C 465.167,179.833 461.167,175.833 457.5,171.5 Z"/></g>
<g><path style="opacity:1" fill="#ce3014" d="M 457.5,171.5 C 461.167,175.833 465.167,179.833 469.5,183.5C 472.167,186.833 475.167,189.833 478.5,192.5C 480.231,204.142 476.897,213.976 468.5,222C 455.439,227.384 446.272,223.551 441,210.5C 438.015,199.191 439.348,188.524 445,178.5C 448.376,174.729 452.542,172.396 457.5,171.5 Z"/></g>
<g><path style="opacity:1" fill="#181210" d="M 469.5,174.5 C 476.052,178.72 479.052,184.72 478.5,192.5C 475.167,189.833 472.167,186.833 469.5,183.5C 469.5,180.5 469.5,177.5 469.5,174.5 Z"/></g>
<g><path style="opacity:1" fill="#909090" d="M 13.5,169.5 C 12.8345,177.483 12.5012,185.483 12.5,193.5C 11.8353,190.686 11.502,187.686 11.5,184.5C 11.3917,179.255 12.0583,174.255 13.5,169.5 Z"/></g>
<g><path style="opacity:1" fill="#fdf7f6" d="M 167.5,276.5 C 178.54,275.704 183.04,280.704 181,291.5C 177.212,296.153 172.378,297.653 166.5,296C 160.975,293.081 159.142,288.581 161,282.5C 162.494,279.686 164.66,277.686 167.5,276.5 Z"/></g>
<g><path style="opacity:1" fill="#fdfafa" d="M 112.5,350.5 C 105.833,350.5 99.1667,350.5 92.5,350.5C 92.1736,359.349 92.507,368.016 93.5,376.5C 93.5,376.833 93.5,377.167 93.5,377.5C 93.5,381.5 93.5,385.5 93.5,389.5C 87.1667,389.5 80.8333,389.5 74.5,389.5C 74.5,378.833 74.5,368.167 74.5,357.5C 74.5,332.5 74.5,307.5 74.5,282.5C 88.8372,282.333 103.171,282.5 117.5,283C 135.783,285.776 145.45,296.276 146.5,314.5C 145.788,336.546 134.454,348.546 112.5,350.5 Z"/></g>
<g><path style="opacity:1" fill="#010000" d="M 505.5,280.5 C 505.667,333.834 505.5,387.168 505,440.5C 500.159,466.35 485.992,485.183 462.5,497C 455.429,499.935 448.096,501.935 440.5,503C 387.168,503.5 333.834,503.667 280.5,503.5C 289.08,500.575 297.08,496.408 304.5,491C 312.671,483.662 320.671,476.162 328.5,468.5C 356.095,469.657 383.761,469.824 411.5,469C 443.205,465.96 463.372,449.126 472,418.5C 473.454,387.203 473.954,355.869 473.5,324.5C 480.495,317.338 487.328,310.004 494,302.5C 498.658,295.515 502.491,288.182 505.5,280.5 Z"/></g>
<g><path style="opacity:1" fill="#010101" d="M 9.5,285.5 C 12.7918,292.07 16.6251,298.403 21,304.5C 29.7023,313.035 38.2023,321.702 46.5,330.5C 46.3334,358.169 46.5,385.835 47,413.5C 53.0934,446.093 72.5934,464.427 105.5,468.5C 132.167,469.833 158.833,469.833 185.5,468.5C 192.965,475.464 200.298,482.631 207.5,490C 215.321,495.575 223.654,500.075 232.5,503.5C 179.832,503.667 127.166,503.5 74.5,503C 44.8019,498.318 24.4686,481.985 13.5,454C 11.7833,449.3 10.6167,444.467 10,439.5C 9.50001,388.168 9.33334,336.834 9.5,285.5 Z"/></g>
<g><path style="opacity:1" fill="#ce2f12" d="M 93.5,297.5 C 101.253,297.104 108.92,297.604 116.5,299C 127.845,305.317 130.678,314.484 125,326.5C 122.545,331.149 118.712,333.983 113.5,335C 106.888,336.21 100.222,336.71 93.5,336.5C 93.5,323.5 93.5,310.5 93.5,297.5 Z"/></g>
<g><path style="opacity:1" fill="#fef9f8" d="M 221.5,310.5 C 229.238,310.144 236.905,310.644 244.5,312C 253.505,315.007 259.005,321.173 261,330.5C 261.5,350.164 261.667,369.831 261.5,389.5C 255.5,389.5 249.5,389.5 243.5,389.5C 243.665,386.482 243.498,383.482 243,380.5C 234.01,391.161 222.843,394.328 209.5,390C 200.415,385.658 196.082,378.492 196.5,368.5C 197.109,355.046 204.109,346.879 217.5,344C 226.131,342.505 234.798,341.338 243.5,340.5C 244.244,331.426 240.244,325.926 231.5,324C 221.333,323.111 212.333,325.944 204.5,332.5C 203.338,327.533 203.171,322.533 204,317.5C 209.585,314.256 215.419,311.923 221.5,310.5 Z"/></g>
<g><path style="opacity:1" fill="#fefaf9" d="M 317.5,310.5 C 334.583,308.111 345.416,315.111 350,331.5C 350.5,350.83 350.667,370.164 350.5,389.5C 344.5,389.5 338.5,389.5 332.5,389.5C 332.667,372.163 332.5,354.83 332,337.5C 328.284,325.141 320.451,321.641 308.5,327C 305.238,329.592 302.738,332.759 301,336.5C 299.555,354.111 299.055,371.777 299.5,389.5C 293.5,389.5 287.5,389.5 281.5,389.5C 281.5,363.833 281.5,338.167 281.5,312.5C 287.5,312.5 293.5,312.5 299.5,312.5C 299.335,316.182 299.501,319.848 300,323.5C 304.392,317.071 310.225,312.738 317.5,310.5 Z"/></g>
<g><path style="opacity:1" fill="#fdfafa" d="M 445.5,351.5 C 444.301,377.699 430.635,391.033 404.5,391.5C 379.014,390.026 366.347,376.526 366.5,351C 367.169,325.331 380.335,311.831 406,310.5C 432.544,311.212 445.711,324.878 445.5,351.5 Z"/></g>
<g><path style="opacity:1" fill="#fdf4f2" d="M 161.5,312.5 C 167.833,312.5 174.167,312.5 180.5,312.5C 180.5,338.167 180.5,363.833 180.5,389.5C 174.167,389.5 167.833,389.5 161.5,389.5C 161.5,363.833 161.5,338.167 161.5,312.5 Z"/></g>
<g><path style="opacity:1" fill="#ce3013" d="M 400.5,324.5 C 414.026,322.888 422.526,328.555 426,341.5C 427.011,349.983 426.344,358.316 424,366.5C 418.888,375.756 411.055,379.256 400.5,377C 391.673,373.56 386.507,367.06 385,357.5C 381.886,342.243 387.053,331.243 400.5,324.5 Z"/></g>
<g><path style="opacity:1" fill="#d3d800" d="M 473.5,324.5 C 473.954,355.869 473.454,387.203 472,418.5C 463.372,449.126 443.205,465.96 411.5,469C 383.761,469.824 356.095,469.657 328.5,468.5C 353.833,442.833 379.167,417.167 404.5,391.5C 430.635,391.033 444.301,377.699 445.5,351.5C 454.833,342.5 464.167,333.5 473.5,324.5 Z"/></g>
<g><path style="opacity:1" fill="#2e53fe" d="M 46.5,330.5 C 55.8333,339.5 65.1667,348.5 74.5,357.5C 74.5,368.167 74.5,378.833 74.5,389.5C 80.8333,389.5 87.1667,389.5 93.5,389.5C 93.5,385.5 93.5,381.5 93.5,377.5C 123.86,407.527 154.194,437.527 184.5,467.5C 158.339,468.498 132.005,468.831 105.5,468.5C 72.5934,464.427 53.0934,446.093 47,413.5C 46.5,385.835 46.3334,358.169 46.5,330.5 Z"/></g>
<g><path style="opacity:1" fill="#eeb8ae" d="M 112.5,350.5 C 106.355,351.49 100.022,351.823 93.5,351.5C 93.5,359.833 93.5,368.167 93.5,376.5C 92.507,368.016 92.1736,359.349 92.5,350.5C 99.1667,350.5 105.833,350.5 112.5,350.5 Z"/></g>
<g><path style="opacity:1" fill="#cf3215" d="M 238.5,352.5 C 240.167,352.5 241.833,352.5 243.5,352.5C 245.619,363.419 241.952,371.586 232.5,377C 219.076,380.381 212.91,375.215 214,361.5C 215.873,359.291 218.04,357.458 220.5,356C 226.657,354.922 232.657,353.755 238.5,352.5 Z"/></g>
<g><path style="opacity:1" fill="#0d1541" d="M 184.5,467.5 C 185.167,467.5 185.5,467.833 185.5,468.5C 158.833,469.833 132.167,469.833 105.5,468.5C 132.005,468.831 158.339,468.498 184.5,467.5 Z"/></g>
</svg>
